<mxfile host="Electron" modified="2024-10-08T16:31:13.153Z" agent="Mozilla/5.0 (Windows NT 10.0; Win64; x64) AppleWebKit/537.36 (KHTML, like Gecko) draw.io/24.4.0 Chrome/120.0.6099.109 Electron/28.1.0 Safari/537.36" etag="eai6qVOUZEZL9gdej0KA" version="24.4.0" type="device">
  <diagram name="Page-1" id="Z3fFYOLJukUrMZ13ezNF">
    <mxGraphModel dx="1421" dy="815" grid="1" gridSize="10" guides="1" tooltips="1" connect="1" arrows="1" fold="1" page="1" pageScale="1" pageWidth="850" pageHeight="1100" math="0" shadow="0">
      <root>
        <mxCell id="0" />
        <mxCell id="1" parent="0" />
        <mxCell id="HjraHUxFYyheh4qPXSw_-89" style="edgeStyle=orthogonalEdgeStyle;rounded=0;orthogonalLoop=1;jettySize=auto;html=1;entryX=0.625;entryY=0.2;entryDx=0;entryDy=0;entryPerimeter=0;exitX=0.625;exitY=0.2;exitDx=0;exitDy=0;exitPerimeter=0;" parent="1" source="HjraHUxFYyheh4qPXSw_-87" target="HjraHUxFYyheh4qPXSw_-57" edge="1">
          <mxGeometry relative="1" as="geometry">
            <Array as="points">
              <mxPoint x="850" y="884" />
              <mxPoint x="850" y="630" />
              <mxPoint x="619" y="630" />
            </Array>
          </mxGeometry>
        </mxCell>
        <mxCell id="HjraHUxFYyheh4qPXSw_-71" style="edgeStyle=orthogonalEdgeStyle;rounded=0;orthogonalLoop=1;jettySize=auto;html=1;entryX=0.4;entryY=0.1;entryDx=0;entryDy=0;entryPerimeter=0;exitX=0.625;exitY=0.2;exitDx=0;exitDy=0;exitPerimeter=0;" parent="1" source="HjraHUxFYyheh4qPXSw_-38" target="HjraHUxFYyheh4qPXSw_-1" edge="1">
          <mxGeometry relative="1" as="geometry">
            <Array as="points">
              <mxPoint x="555" y="808" />
              <mxPoint x="555" y="740" />
              <mxPoint x="110" y="740" />
            </Array>
          </mxGeometry>
        </mxCell>
        <mxCell id="HjraHUxFYyheh4qPXSw_-50" style="edgeStyle=orthogonalEdgeStyle;rounded=0;orthogonalLoop=1;jettySize=auto;html=1;entryX=0.16;entryY=0.55;entryDx=0;entryDy=0;entryPerimeter=0;" parent="1" source="HjraHUxFYyheh4qPXSw_-16" target="HjraHUxFYyheh4qPXSw_-43" edge="1">
          <mxGeometry relative="1" as="geometry">
            <Array as="points">
              <mxPoint x="510" y="1035" />
              <mxPoint x="510" y="989" />
            </Array>
          </mxGeometry>
        </mxCell>
        <mxCell id="HjraHUxFYyheh4qPXSw_-5" value="" style="endArrow=none;dashed=1;html=1;dashPattern=1 3;strokeWidth=2;rounded=0;" parent="1" edge="1">
          <mxGeometry width="50" height="50" relative="1" as="geometry">
            <mxPoint x="320" y="1200" as="sourcePoint" />
            <mxPoint x="320" y="680" as="targetPoint" />
          </mxGeometry>
        </mxCell>
        <mxCell id="HjraHUxFYyheh4qPXSw_-23" style="edgeStyle=orthogonalEdgeStyle;rounded=0;orthogonalLoop=1;jettySize=auto;html=1;exitX=0.875;exitY=0.5;exitDx=0;exitDy=0;exitPerimeter=0;entryX=0;entryY=0.5;entryDx=0;entryDy=0;" parent="1" source="HjraHUxFYyheh4qPXSw_-1" target="HjraHUxFYyheh4qPXSw_-26" edge="1">
          <mxGeometry relative="1" as="geometry">
            <mxPoint x="310" y="860" as="targetPoint" />
            <Array as="points">
              <mxPoint x="140" y="970" />
              <mxPoint x="140" y="830" />
              <mxPoint x="310" y="830" />
            </Array>
          </mxGeometry>
        </mxCell>
        <mxCell id="HjraHUxFYyheh4qPXSw_-24" style="edgeStyle=orthogonalEdgeStyle;rounded=0;orthogonalLoop=1;jettySize=auto;html=1;entryX=0;entryY=0.5;entryDx=0;entryDy=0;" parent="1" source="HjraHUxFYyheh4qPXSw_-1" target="HjraHUxFYyheh4qPXSw_-11" edge="1">
          <mxGeometry relative="1" as="geometry" />
        </mxCell>
        <mxCell id="HjraHUxFYyheh4qPXSw_-74" style="edgeStyle=orthogonalEdgeStyle;rounded=0;orthogonalLoop=1;jettySize=auto;html=1;entryX=0.5;entryY=1;entryDx=0;entryDy=0;exitX=0.55;exitY=0.95;exitDx=0;exitDy=0;exitPerimeter=0;" parent="1" source="HjraHUxFYyheh4qPXSw_-1" target="HjraHUxFYyheh4qPXSw_-2" edge="1">
          <mxGeometry relative="1" as="geometry">
            <Array as="points">
              <mxPoint x="115" y="1033" />
              <mxPoint x="115" y="1080" />
              <mxPoint x="60" y="1080" />
            </Array>
          </mxGeometry>
        </mxCell>
        <mxCell id="HjraHUxFYyheh4qPXSw_-1" value="L1BTB&lt;div&gt;Logic&lt;/div&gt;" style="ellipse;shape=cloud;whiteSpace=wrap;html=1;" parent="1" vertex="1">
          <mxGeometry x="90" y="900" width="50" height="140" as="geometry" />
        </mxCell>
        <mxCell id="HjraHUxFYyheh4qPXSw_-2" value="BPU&lt;div&gt;RF&lt;/div&gt;" style="rounded=0;whiteSpace=wrap;html=1;" parent="1" vertex="1">
          <mxGeometry x="40" y="895" width="40" height="160" as="geometry" />
        </mxCell>
        <mxCell id="HjraHUxFYyheh4qPXSw_-6" style="edgeStyle=orthogonalEdgeStyle;rounded=0;orthogonalLoop=1;jettySize=auto;html=1;entryX=0;entryY=0.5;entryDx=0;entryDy=0;exitX=1;exitY=0.5;exitDx=0;exitDy=0;" parent="1" source="HjraHUxFYyheh4qPXSw_-11" target="HjraHUxFYyheh4qPXSw_-2" edge="1">
          <mxGeometry relative="1" as="geometry">
            <Array as="points">
              <mxPoint x="180" y="970" />
              <mxPoint x="180" y="850" />
              <mxPoint x="20" y="850" />
              <mxPoint x="20" y="975" />
            </Array>
          </mxGeometry>
        </mxCell>
        <mxCell id="HjraHUxFYyheh4qPXSw_-7" value="TAGE-SRAM" style="rounded=0;whiteSpace=wrap;html=1;labelPosition=center;verticalLabelPosition=middle;align=center;verticalAlign=middle;" parent="1" vertex="1">
          <mxGeometry x="200" y="880" width="130" height="40" as="geometry" />
        </mxCell>
        <mxCell id="HjraHUxFYyheh4qPXSw_-13" value="IC-TAG-SRAM" style="rounded=0;whiteSpace=wrap;html=1;labelPosition=center;verticalLabelPosition=middle;align=center;verticalAlign=middle;" parent="1" vertex="1">
          <mxGeometry x="240" y="940" width="230" height="40" as="geometry" />
        </mxCell>
        <mxCell id="HjraHUxFYyheh4qPXSw_-14" value="IC-INST-SRAM" style="rounded=0;whiteSpace=wrap;html=1;labelPosition=center;verticalLabelPosition=middle;align=center;verticalAlign=middle;" parent="1" vertex="1">
          <mxGeometry x="240" y="980" width="230" height="40" as="geometry" />
        </mxCell>
        <mxCell id="HjraHUxFYyheh4qPXSw_-15" value="TAGE" style="ellipse;shape=cloud;whiteSpace=wrap;html=1;" parent="1" vertex="1">
          <mxGeometry x="340" y="880" width="120" height="40" as="geometry" />
        </mxCell>
        <mxCell id="HjraHUxFYyheh4qPXSw_-16" value="I-TLB Lookup" style="rounded=0;whiteSpace=wrap;html=1;labelPosition=center;verticalLabelPosition=middle;align=center;verticalAlign=middle;" parent="1" vertex="1">
          <mxGeometry x="240" y="1015" width="230" height="35" as="geometry" />
        </mxCell>
        <mxCell id="HjraHUxFYyheh4qPXSw_-17" style="edgeStyle=orthogonalEdgeStyle;rounded=0;orthogonalLoop=1;jettySize=auto;html=1;entryX=0;entryY=0.5;entryDx=0;entryDy=0;" parent="1" source="HjraHUxFYyheh4qPXSw_-11" target="HjraHUxFYyheh4qPXSw_-13" edge="1">
          <mxGeometry relative="1" as="geometry">
            <Array as="points">
              <mxPoint x="180" y="970" />
              <mxPoint x="180" y="960" />
            </Array>
          </mxGeometry>
        </mxCell>
        <mxCell id="HjraHUxFYyheh4qPXSw_-18" style="edgeStyle=orthogonalEdgeStyle;rounded=0;orthogonalLoop=1;jettySize=auto;html=1;entryX=0;entryY=0.5;entryDx=0;entryDy=0;" parent="1" source="HjraHUxFYyheh4qPXSw_-11" target="HjraHUxFYyheh4qPXSw_-14" edge="1">
          <mxGeometry relative="1" as="geometry">
            <Array as="points">
              <mxPoint x="180" y="970" />
              <mxPoint x="180" y="1000" />
            </Array>
          </mxGeometry>
        </mxCell>
        <mxCell id="HjraHUxFYyheh4qPXSw_-19" style="edgeStyle=orthogonalEdgeStyle;rounded=0;orthogonalLoop=1;jettySize=auto;html=1;entryX=0;entryY=0.5;entryDx=0;entryDy=0;" parent="1" source="HjraHUxFYyheh4qPXSw_-11" target="HjraHUxFYyheh4qPXSw_-16" edge="1">
          <mxGeometry relative="1" as="geometry">
            <Array as="points">
              <mxPoint x="180" y="970" />
              <mxPoint x="180" y="1035" />
            </Array>
          </mxGeometry>
        </mxCell>
        <mxCell id="HjraHUxFYyheh4qPXSw_-20" style="edgeStyle=orthogonalEdgeStyle;rounded=0;orthogonalLoop=1;jettySize=auto;html=1;" parent="1" source="HjraHUxFYyheh4qPXSw_-11" target="HjraHUxFYyheh4qPXSw_-7" edge="1">
          <mxGeometry relative="1" as="geometry">
            <Array as="points">
              <mxPoint x="180" y="970" />
              <mxPoint x="180" y="900" />
            </Array>
          </mxGeometry>
        </mxCell>
        <mxCell id="HjraHUxFYyheh4qPXSw_-25" style="edgeStyle=orthogonalEdgeStyle;rounded=0;orthogonalLoop=1;jettySize=auto;html=1;entryX=0.16;entryY=0.55;entryDx=0;entryDy=0;entryPerimeter=0;" parent="1" source="HjraHUxFYyheh4qPXSw_-2" target="HjraHUxFYyheh4qPXSw_-1" edge="1">
          <mxGeometry relative="1" as="geometry">
            <Array as="points">
              <mxPoint x="90" y="977" />
              <mxPoint x="90" y="977" />
            </Array>
          </mxGeometry>
        </mxCell>
        <mxCell id="HjraHUxFYyheh4qPXSw_-10" value="" style="endArrow=none;dashed=1;html=1;dashPattern=1 3;strokeWidth=2;rounded=0;" parent="1" edge="1">
          <mxGeometry width="50" height="50" relative="1" as="geometry">
            <mxPoint x="160" y="1200" as="sourcePoint" />
            <mxPoint x="160" y="680" as="targetPoint" />
          </mxGeometry>
        </mxCell>
        <mxCell id="HjraHUxFYyheh4qPXSw_-11" value="PC" style="rounded=0;html=1;whiteSpace=wrap;fontColor=default;labelBackgroundColor=none;labelBorderColor=none;textShadow=0;horizontal=1;verticalAlign=middle;align=center;labelPosition=center;verticalLabelPosition=middle;" parent="1" vertex="1">
          <mxGeometry x="150" y="890" width="20" height="160" as="geometry" />
        </mxCell>
        <mxCell id="HjraHUxFYyheh4qPXSw_-12" value="" style="triangle;whiteSpace=wrap;html=1;rotation=-90;" parent="1" vertex="1">
          <mxGeometry x="155" y="1037.5" width="10" height="15" as="geometry" />
        </mxCell>
        <mxCell id="HjraHUxFYyheh4qPXSw_-26" value="" style="rounded=0;html=1;whiteSpace=wrap;fontColor=default;labelBackgroundColor=none;labelBorderColor=none;textShadow=0;horizontal=1;verticalAlign=middle;align=center;labelPosition=center;verticalLabelPosition=middle;" parent="1" vertex="1">
          <mxGeometry x="310" y="780" width="20" height="99.5" as="geometry" />
        </mxCell>
        <mxCell id="HjraHUxFYyheh4qPXSw_-27" value="" style="triangle;whiteSpace=wrap;html=1;rotation=-90;" parent="1" vertex="1">
          <mxGeometry x="315" y="867" width="10" height="15" as="geometry" />
        </mxCell>
        <mxCell id="HjraHUxFYyheh4qPXSw_-31" value="" style="endArrow=none;dashed=1;html=1;dashPattern=1 3;strokeWidth=2;rounded=0;" parent="1" edge="1">
          <mxGeometry width="50" height="50" relative="1" as="geometry">
            <mxPoint x="480" y="1200" as="sourcePoint" />
            <mxPoint x="480" y="680" as="targetPoint" />
          </mxGeometry>
        </mxCell>
        <mxCell id="HjraHUxFYyheh4qPXSw_-32" value="" style="rounded=0;html=1;whiteSpace=wrap;fontColor=default;labelBackgroundColor=none;labelBorderColor=none;textShadow=0;horizontal=1;verticalAlign=middle;align=center;labelPosition=center;verticalLabelPosition=middle;" parent="1" vertex="1">
          <mxGeometry x="470" y="780" width="20" height="269.5" as="geometry" />
        </mxCell>
        <mxCell id="HjraHUxFYyheh4qPXSw_-33" value="" style="triangle;whiteSpace=wrap;html=1;rotation=-90;" parent="1" vertex="1">
          <mxGeometry x="475" y="1037" width="10" height="15" as="geometry" />
        </mxCell>
        <mxCell id="HjraHUxFYyheh4qPXSw_-34" style="edgeStyle=orthogonalEdgeStyle;rounded=0;orthogonalLoop=1;jettySize=auto;html=1;entryX=-0.011;entryY=0.183;entryDx=0;entryDy=0;entryPerimeter=0;" parent="1" source="HjraHUxFYyheh4qPXSw_-26" target="HjraHUxFYyheh4qPXSw_-32" edge="1">
          <mxGeometry relative="1" as="geometry" />
        </mxCell>
        <mxCell id="HjraHUxFYyheh4qPXSw_-35" style="edgeStyle=orthogonalEdgeStyle;rounded=0;orthogonalLoop=1;jettySize=auto;html=1;exitX=1;exitY=0.5;exitDx=0;exitDy=0;entryX=0.084;entryY=0.524;entryDx=0;entryDy=0;entryPerimeter=0;" parent="1" source="HjraHUxFYyheh4qPXSw_-7" target="HjraHUxFYyheh4qPXSw_-15" edge="1">
          <mxGeometry relative="1" as="geometry" />
        </mxCell>
        <mxCell id="HjraHUxFYyheh4qPXSw_-37" style="edgeStyle=orthogonalEdgeStyle;rounded=0;orthogonalLoop=1;jettySize=auto;html=1;exitX=0.875;exitY=0.5;exitDx=0;exitDy=0;exitPerimeter=0;" parent="1" source="HjraHUxFYyheh4qPXSw_-15" edge="1">
          <mxGeometry relative="1" as="geometry">
            <mxPoint x="450" y="897" as="sourcePoint" />
            <mxPoint x="470" y="900" as="targetPoint" />
            <Array as="points">
              <mxPoint x="469" y="900" />
            </Array>
          </mxGeometry>
        </mxCell>
        <mxCell id="HjraHUxFYyheh4qPXSw_-69" style="edgeStyle=orthogonalEdgeStyle;rounded=0;orthogonalLoop=1;jettySize=auto;html=1;entryX=0.5;entryY=0;entryDx=0;entryDy=0;" parent="1" source="HjraHUxFYyheh4qPXSw_-38" target="HjraHUxFYyheh4qPXSw_-32" edge="1">
          <mxGeometry relative="1" as="geometry">
            <Array as="points">
              <mxPoint x="555" y="760" />
              <mxPoint x="480" y="760" />
            </Array>
          </mxGeometry>
        </mxCell>
        <mxCell id="HjraHUxFYyheh4qPXSw_-70" style="edgeStyle=orthogonalEdgeStyle;rounded=0;orthogonalLoop=1;jettySize=auto;html=1;entryX=0.5;entryY=0;entryDx=0;entryDy=0;" parent="1" source="HjraHUxFYyheh4qPXSw_-38" target="HjraHUxFYyheh4qPXSw_-26" edge="1">
          <mxGeometry relative="1" as="geometry">
            <Array as="points">
              <mxPoint x="555" y="760" />
              <mxPoint x="320" y="760" />
            </Array>
          </mxGeometry>
        </mxCell>
        <mxCell id="HjraHUxFYyheh4qPXSw_-82" style="edgeStyle=orthogonalEdgeStyle;rounded=0;orthogonalLoop=1;jettySize=auto;html=1;entryX=0;entryY=0.5;entryDx=0;entryDy=0;" parent="1" source="HjraHUxFYyheh4qPXSw_-38" target="HjraHUxFYyheh4qPXSw_-75" edge="1">
          <mxGeometry relative="1" as="geometry">
            <Array as="points">
              <mxPoint x="640" y="830" />
              <mxPoint x="640" y="830" />
            </Array>
          </mxGeometry>
        </mxCell>
        <mxCell id="HjraHUxFYyheh4qPXSw_-38" value="Upd Logic" style="ellipse;shape=cloud;whiteSpace=wrap;html=1;" parent="1" vertex="1">
          <mxGeometry x="490" y="800" width="130" height="40" as="geometry" />
        </mxCell>
        <mxCell id="HjraHUxFYyheh4qPXSw_-40" style="edgeStyle=orthogonalEdgeStyle;rounded=0;orthogonalLoop=1;jettySize=auto;html=1;entryX=0.31;entryY=0.8;entryDx=0;entryDy=0;entryPerimeter=0;" parent="1" source="HjraHUxFYyheh4qPXSw_-32" target="HjraHUxFYyheh4qPXSw_-38" edge="1">
          <mxGeometry relative="1" as="geometry">
            <Array as="points">
              <mxPoint x="530" y="900" />
            </Array>
          </mxGeometry>
        </mxCell>
        <mxCell id="HjraHUxFYyheh4qPXSw_-42" value="TAGE_UPD" style="edgeLabel;html=1;align=center;verticalAlign=middle;resizable=0;points=[];" parent="HjraHUxFYyheh4qPXSw_-40" vertex="1" connectable="0">
          <mxGeometry x="-0.3939" y="-1" relative="1" as="geometry">
            <mxPoint y="-34" as="offset" />
          </mxGeometry>
        </mxCell>
        <mxCell id="HjraHUxFYyheh4qPXSw_-41" style="edgeStyle=orthogonalEdgeStyle;rounded=0;orthogonalLoop=1;jettySize=auto;html=1;entryX=0.625;entryY=0.2;entryDx=0;entryDy=0;entryPerimeter=0;" parent="1" source="HjraHUxFYyheh4qPXSw_-26" target="HjraHUxFYyheh4qPXSw_-15" edge="1">
          <mxGeometry relative="1" as="geometry" />
        </mxCell>
        <mxCell id="HjraHUxFYyheh4qPXSw_-48" style="edgeStyle=orthogonalEdgeStyle;rounded=0;orthogonalLoop=1;jettySize=auto;html=1;entryX=0;entryY=0.75;entryDx=0;entryDy=0;exitX=0.875;exitY=0.5;exitDx=0;exitDy=0;exitPerimeter=0;" parent="1" source="HjraHUxFYyheh4qPXSw_-43" target="HjraHUxFYyheh4qPXSw_-46" edge="1">
          <mxGeometry relative="1" as="geometry">
            <Array as="points">
              <mxPoint x="590" y="982" />
              <mxPoint x="620" y="982" />
            </Array>
          </mxGeometry>
        </mxCell>
        <mxCell id="HjraHUxFYyheh4qPXSw_-43" value="IC-HIT" style="ellipse;shape=cloud;whiteSpace=wrap;html=1;" parent="1" vertex="1">
          <mxGeometry x="530" y="950" width="120" height="70" as="geometry" />
        </mxCell>
        <mxCell id="HjraHUxFYyheh4qPXSw_-44" style="edgeStyle=orthogonalEdgeStyle;rounded=0;orthogonalLoop=1;jettySize=auto;html=1;exitX=1;exitY=0.75;exitDx=0;exitDy=0;entryX=0.16;entryY=0.55;entryDx=0;entryDy=0;entryPerimeter=0;" parent="1" source="HjraHUxFYyheh4qPXSw_-32" target="HjraHUxFYyheh4qPXSw_-43" edge="1">
          <mxGeometry relative="1" as="geometry">
            <mxPoint x="520" y="990" as="targetPoint" />
            <Array as="points">
              <mxPoint x="490" y="960" />
              <mxPoint x="510" y="960" />
              <mxPoint x="510" y="988" />
            </Array>
          </mxGeometry>
        </mxCell>
        <mxCell id="HjraHUxFYyheh4qPXSw_-45" value="" style="endArrow=none;dashed=1;html=1;dashPattern=1 3;strokeWidth=2;rounded=0;" parent="1" edge="1">
          <mxGeometry width="50" height="50" relative="1" as="geometry">
            <mxPoint x="690" y="1200" as="sourcePoint" />
            <mxPoint x="690" y="660" as="targetPoint" />
          </mxGeometry>
        </mxCell>
        <mxCell id="HjraHUxFYyheh4qPXSw_-84" style="edgeStyle=orthogonalEdgeStyle;rounded=0;orthogonalLoop=1;jettySize=auto;html=1;" parent="1" source="HjraHUxFYyheh4qPXSw_-46" target="HjraHUxFYyheh4qPXSw_-83" edge="1">
          <mxGeometry relative="1" as="geometry">
            <Array as="points">
              <mxPoint x="800" y="960" />
              <mxPoint x="800" y="960" />
            </Array>
          </mxGeometry>
        </mxCell>
        <mxCell id="HjraHUxFYyheh4qPXSw_-94" style="edgeStyle=orthogonalEdgeStyle;rounded=0;orthogonalLoop=1;jettySize=auto;html=1;entryX=0.5;entryY=1;entryDx=0;entryDy=0;" parent="1" source="HjraHUxFYyheh4qPXSw_-46" target="HjraHUxFYyheh4qPXSw_-96" edge="1">
          <mxGeometry relative="1" as="geometry">
            <mxPoint x="200" y="1035" as="targetPoint" />
            <Array as="points">
              <mxPoint x="750" y="1140" />
              <mxPoint x="205" y="1140" />
            </Array>
          </mxGeometry>
        </mxCell>
        <mxCell id="HjraHUxFYyheh4qPXSw_-95" value="Replay" style="edgeLabel;html=1;align=center;verticalAlign=middle;resizable=0;points=[];" parent="HjraHUxFYyheh4qPXSw_-94" vertex="1" connectable="0">
          <mxGeometry x="-0.3801" y="5" relative="1" as="geometry">
            <mxPoint x="-376" y="-15" as="offset" />
          </mxGeometry>
        </mxCell>
        <mxCell id="HjraHUxFYyheh4qPXSw_-46" value="Fetch&lt;div&gt;Queue&lt;/div&gt;&lt;div&gt;(2w1r)&lt;/div&gt;&lt;div&gt;Banked Write&lt;/div&gt;" style="rounded=0;html=1;whiteSpace=wrap;fontColor=default;labelBackgroundColor=none;labelBorderColor=none;textShadow=0;horizontal=1;verticalAlign=middle;align=center;labelPosition=center;verticalLabelPosition=middle;" parent="1" vertex="1">
          <mxGeometry x="680" y="780" width="90" height="269.5" as="geometry" />
        </mxCell>
        <mxCell id="HjraHUxFYyheh4qPXSw_-47" value="" style="triangle;whiteSpace=wrap;html=1;rotation=-90;" parent="1" vertex="1">
          <mxGeometry x="685" y="1037" width="10" height="15" as="geometry" />
        </mxCell>
        <mxCell id="qj-R9kZcvhdvLTEpw3hC-2" style="edgeStyle=orthogonalEdgeStyle;rounded=0;orthogonalLoop=1;jettySize=auto;html=1;exitX=0.55;exitY=0.95;exitDx=0;exitDy=0;exitPerimeter=0;entryX=0;entryY=0.5;entryDx=0;entryDy=0;" edge="1" parent="1" source="HjraHUxFYyheh4qPXSw_-57" target="HjraHUxFYyheh4qPXSw_-63">
          <mxGeometry relative="1" as="geometry">
            <Array as="points">
              <mxPoint x="605" y="697" />
              <mxPoint x="605" y="690" />
              <mxPoint x="610" y="690" />
              <mxPoint x="610" y="718" />
            </Array>
          </mxGeometry>
        </mxCell>
        <mxCell id="HjraHUxFYyheh4qPXSw_-57" value="Back-Upd Logic" style="ellipse;shape=cloud;whiteSpace=wrap;html=1;" parent="1" vertex="1">
          <mxGeometry x="550" y="650" width="110" height="50" as="geometry" />
        </mxCell>
        <mxCell id="HjraHUxFYyheh4qPXSw_-62" value="" style="group;rotation=0;" parent="1" vertex="1" connectable="0">
          <mxGeometry x="680" y="680" width="20" height="71.5" as="geometry" />
        </mxCell>
        <mxCell id="HjraHUxFYyheh4qPXSw_-64" value="" style="triangle;whiteSpace=wrap;html=1;rotation=-90;" parent="HjraHUxFYyheh4qPXSw_-62" vertex="1">
          <mxGeometry x="5" y="49" width="10" height="15" as="geometry" />
        </mxCell>
        <mxCell id="HjraHUxFYyheh4qPXSw_-63" value="" style="rounded=0;html=1;whiteSpace=wrap;fontColor=default;labelBackgroundColor=none;labelBorderColor=none;textShadow=0;horizontal=1;verticalAlign=middle;align=center;labelPosition=center;verticalLabelPosition=middle;rotation=0;" parent="HjraHUxFYyheh4qPXSw_-62" vertex="1">
          <mxGeometry y="12.5" width="20" height="51.5" as="geometry" />
        </mxCell>
        <mxCell id="HjraHUxFYyheh4qPXSw_-75" value="Fetch&amp;amp;Predict&lt;div&gt;Info&amp;nbsp;&lt;span style=&quot;background-color: initial;&quot;&gt;RF&lt;/span&gt;&lt;/div&gt;" style="rounded=0;html=1;whiteSpace=wrap;fontColor=default;labelBackgroundColor=none;labelBorderColor=none;textShadow=0;horizontal=1;verticalAlign=middle;align=center;labelPosition=center;verticalLabelPosition=middle;" parent="1" vertex="1">
          <mxGeometry x="680" y="780" width="90" height="100" as="geometry" />
        </mxCell>
        <mxCell id="HjraHUxFYyheh4qPXSw_-76" value="" style="endArrow=classic;html=1;rounded=0;entryX=0.875;entryY=0.5;entryDx=0;entryDy=0;entryPerimeter=0;dashed=1;dashPattern=12 12;" parent="1" edge="1">
          <mxGeometry width="50" height="50" relative="1" as="geometry">
            <mxPoint x="1110" y="850" as="sourcePoint" />
            <mxPoint x="770" y="850" as="targetPoint" />
          </mxGeometry>
        </mxCell>
        <mxCell id="HjraHUxFYyheh4qPXSw_-77" value="BACK_UPD_SIMP" style="edgeLabel;html=1;align=center;verticalAlign=middle;resizable=0;points=[];" parent="HjraHUxFYyheh4qPXSw_-76" vertex="1" connectable="0">
          <mxGeometry x="-0.3891" y="2" relative="1" as="geometry">
            <mxPoint x="44" y="-12" as="offset" />
          </mxGeometry>
        </mxCell>
        <mxCell id="HjraHUxFYyheh4qPXSw_-78" style="edgeStyle=orthogonalEdgeStyle;rounded=0;orthogonalLoop=1;jettySize=auto;html=1;entryX=0.625;entryY=0.2;entryDx=0;entryDy=0;entryPerimeter=0;" parent="1" source="HjraHUxFYyheh4qPXSw_-75" target="HjraHUxFYyheh4qPXSw_-57" edge="1">
          <mxGeometry relative="1" as="geometry">
            <Array as="points">
              <mxPoint x="830" y="810" />
              <mxPoint x="830" y="630" />
              <mxPoint x="619" y="630" />
            </Array>
          </mxGeometry>
        </mxCell>
        <mxCell id="HjraHUxFYyheh4qPXSw_-83" value="Rename" style="rounded=0;whiteSpace=wrap;html=1;" parent="1" vertex="1">
          <mxGeometry x="920" y="930" width="120" height="60" as="geometry" />
        </mxCell>
        <mxCell id="HjraHUxFYyheh4qPXSw_-85" value="" style="endArrow=classic;html=1;rounded=0;entryX=0.5;entryY=0;entryDx=0;entryDy=0;dashed=1;dashPattern=12 12;" parent="1" target="HjraHUxFYyheh4qPXSw_-83" edge="1">
          <mxGeometry width="50" height="50" relative="1" as="geometry">
            <mxPoint x="1110" y="850" as="sourcePoint" />
            <mxPoint x="780" y="860" as="targetPoint" />
            <Array as="points">
              <mxPoint x="980" y="850" />
            </Array>
          </mxGeometry>
        </mxCell>
        <mxCell id="HjraHUxFYyheh4qPXSw_-87" value="Dec Upd Logic" style="ellipse;shape=cloud;whiteSpace=wrap;html=1;" parent="1" vertex="1">
          <mxGeometry x="790" y="870" width="115" height="70" as="geometry" />
        </mxCell>
        <mxCell id="HjraHUxFYyheh4qPXSw_-88" style="edgeStyle=orthogonalEdgeStyle;rounded=0;orthogonalLoop=1;jettySize=auto;html=1;entryX=0.55;entryY=0.95;entryDx=0;entryDy=0;entryPerimeter=0;" parent="1" source="HjraHUxFYyheh4qPXSw_-46" target="HjraHUxFYyheh4qPXSw_-87" edge="1">
          <mxGeometry relative="1" as="geometry">
            <Array as="points">
              <mxPoint x="853" y="960" />
              <mxPoint x="853" y="937" />
            </Array>
          </mxGeometry>
        </mxCell>
        <mxCell id="HjraHUxFYyheh4qPXSw_-90" value="" style="endArrow=classic;html=1;rounded=0;entryX=0.55;entryY=0.95;entryDx=0;entryDy=0;dashed=1;dashPattern=12 12;entryPerimeter=0;" parent="1" target="HjraHUxFYyheh4qPXSw_-43" edge="1">
          <mxGeometry width="50" height="50" relative="1" as="geometry">
            <mxPoint x="596" y="1100" as="sourcePoint" />
            <mxPoint x="555" y="1180" as="targetPoint" />
            <Array as="points">
              <mxPoint x="596" y="1110" />
              <mxPoint x="596" y="1100" />
            </Array>
          </mxGeometry>
        </mxCell>
        <mxCell id="HjraHUxFYyheh4qPXSw_-91" value="Refill" style="edgeLabel;html=1;align=center;verticalAlign=middle;resizable=0;points=[];" parent="HjraHUxFYyheh4qPXSw_-90" vertex="1" connectable="0">
          <mxGeometry x="-0.9171" relative="1" as="geometry">
            <mxPoint y="16" as="offset" />
          </mxGeometry>
        </mxCell>
        <mxCell id="HjraHUxFYyheh4qPXSw_-92" value="" style="endArrow=classic;html=1;rounded=0;entryX=0.5;entryY=1;entryDx=0;entryDy=0;dashed=1;dashPattern=12 12;" parent="1" target="HjraHUxFYyheh4qPXSw_-46" edge="1">
          <mxGeometry width="50" height="50" relative="1" as="geometry">
            <mxPoint x="600" y="1090" as="sourcePoint" />
            <mxPoint x="606" y="1027" as="targetPoint" />
            <Array as="points">
              <mxPoint x="660" y="1090" />
              <mxPoint x="725" y="1090" />
            </Array>
          </mxGeometry>
        </mxCell>
        <mxCell id="HjraHUxFYyheh4qPXSw_-96" value="ARB" style="rounded=0;whiteSpace=wrap;html=1;" parent="1" vertex="1">
          <mxGeometry x="190" y="940" width="30" height="110" as="geometry" />
        </mxCell>
        <mxCell id="qj-R9kZcvhdvLTEpw3hC-3" style="edgeStyle=orthogonalEdgeStyle;rounded=0;orthogonalLoop=1;jettySize=auto;html=1;entryX=0.88;entryY=0.25;entryDx=0;entryDy=0;entryPerimeter=0;exitX=1;exitY=0.5;exitDx=0;exitDy=0;" edge="1" parent="1" source="HjraHUxFYyheh4qPXSw_-63" target="HjraHUxFYyheh4qPXSw_-38">
          <mxGeometry relative="1" as="geometry">
            <Array as="points">
              <mxPoint x="720" y="718" />
              <mxPoint x="720" y="760" />
              <mxPoint x="604" y="760" />
            </Array>
          </mxGeometry>
        </mxCell>
        <mxCell id="qj-R9kZcvhdvLTEpw3hC-4" value="B_UPD" style="edgeLabel;html=1;align=center;verticalAlign=middle;resizable=0;points=[];" vertex="1" connectable="0" parent="qj-R9kZcvhdvLTEpw3hC-3">
          <mxGeometry x="-0.7987" y="-3" relative="1" as="geometry">
            <mxPoint x="8" y="-21" as="offset" />
          </mxGeometry>
        </mxCell>
        <mxCell id="qj-R9kZcvhdvLTEpw3hC-6" style="edgeStyle=orthogonalEdgeStyle;rounded=0;orthogonalLoop=1;jettySize=auto;html=1;entryX=0.75;entryY=0;entryDx=0;entryDy=0;exitX=1;exitY=0.5;exitDx=0;exitDy=0;" edge="1" parent="1" source="HjraHUxFYyheh4qPXSw_-63" target="HjraHUxFYyheh4qPXSw_-75">
          <mxGeometry relative="1" as="geometry">
            <mxPoint x="760" y="740" as="sourcePoint" />
          </mxGeometry>
        </mxCell>
        <mxCell id="qj-R9kZcvhdvLTEpw3hC-7" value="RAS" style="rounded=0;whiteSpace=wrap;html=1;" vertex="1" parent="1">
          <mxGeometry x="790" y="990" width="100" height="60" as="geometry" />
        </mxCell>
        <mxCell id="qj-R9kZcvhdvLTEpw3hC-8" style="edgeStyle=orthogonalEdgeStyle;rounded=0;orthogonalLoop=1;jettySize=auto;html=1;entryX=0.5;entryY=0;entryDx=0;entryDy=0;" edge="1" parent="1" target="qj-R9kZcvhdvLTEpw3hC-7">
          <mxGeometry relative="1" as="geometry">
            <Array as="points">
              <mxPoint x="840" y="960" />
            </Array>
            <mxPoint x="770" y="960" as="sourcePoint" />
            <mxPoint x="863" y="947" as="targetPoint" />
          </mxGeometry>
        </mxCell>
        <mxCell id="qj-R9kZcvhdvLTEpw3hC-9" value="" style="rounded=0;whiteSpace=wrap;html=1;fillColor=none;dashed=1;dashPattern=12 12;strokeWidth=2;" vertex="1" parent="1">
          <mxGeometry x="170" y="920" width="510" height="130" as="geometry" />
        </mxCell>
        <mxCell id="qj-R9kZcvhdvLTEpw3hC-10" value="" style="rounded=0;whiteSpace=wrap;html=1;fillColor=none;dashed=1;dashPattern=12 12;strokeWidth=2;" vertex="1" parent="1">
          <mxGeometry x="170" y="750" width="320" height="170" as="geometry" />
        </mxCell>
        <mxCell id="qj-R9kZcvhdvLTEpw3hC-12" value="FID Manager" style="rounded=1;whiteSpace=wrap;html=1;" vertex="1" parent="1">
          <mxGeometry x="40" y="1180" width="80" height="40" as="geometry" />
        </mxCell>
      </root>
    </mxGraphModel>
  </diagram>
</mxfile>
